<svg xmlns="http://www.w3.org/2000/svg" version="1.1" xmlns:xlink="http://www.w3.org/1999/xlink" xmlns:svgjs="http://svgjs.dev/svgjs" width="1000" height="1125" viewBox="0 0 1000 1125"><g transform="matrix(1,0,0,1,0,0)"><svg viewBox="0 0 320 360" data-background-color="#ffffff" preserveAspectRatio="xMidYMid meet" height="1125" width="1000" xmlns="http://www.w3.org/2000/svg" xmlns:xlink="http://www.w3.org/1999/xlink"><g id="tight-bounds" transform="matrix(1,0,0,1,0,0)"><svg viewBox="0 0 320 360" height="360" width="320"><g><svg></svg></g><g><svg viewBox="0 0 320 360" height="360" width="320"><g><path xmlns="http://www.w3.org/2000/svg" d="M219.58 41.008c0.707 0 6.365 2.829 9.547 3.89-1.061 0.354-3.536-0.707-6.365-1.768 0.707 0 2.122 0.354 3.536 1.06-0.707-0.707-6.011-2.475-6.718-3.182M166.895 30.047c1.061-0.354 13.436 1.414 19.094 1.768 0.354-0.354-0.707-0.354-2.122-0.707 1.768-0.354 5.304 0.707 7.779 1.06-7.425 0.354-15.558-1.768-22.629-1.06-2.475 0-0.707-0.707-2.122-1.061M156.641 30.047c6.365 0 11.315 0 2.121 0.707-1.061-0.354-2.475-0.354-2.121-0.707M256.707 59.395c0.707 0 3.536 3.182 4.95 4.243-0.354 0.354-3.182-2.475-4.596-3.536 0.354 0.354 0 0-0.354-0.707M249.635 54.798c-2.829-2.475-3.889-2.475-4.243-3.889 2.475 1.414 4.243 2.829 4.243 3.889M204.022 32.522c0.354-0.354 1.061 0.354 2.829 0.707-2.122-0.354-1.768 0-1.061 0.707-2.475-0.354-3.182-0.707-2.475-1.414 1.414 0.707 1.768 0.354 0.707 0M103.602 36.765c0-0.354 1.414-1.061 2.475-1.414-1.061 0.707-0.707 1.061 1.061 0.353 0 0.354-2.122 1.061-3.536 1.768 0.707-0.354 1.414-1.414 0-0.707M211.094 28.986c-1.061 0.354-4.95-1.768-8.84-2.475-2.122-0.707 8.486 1.768 8.84 2.475M2.475 203.66c2.122 8.84 0.707 8.486 0 0M2.829 150.621c0.354-1.414 0.707-5.304 1.06-4.95-1.061 8.486-2.829 12.376-3.182 18.74 1.061-5.657-0.354 3.182-0.707 5.304 0.354 2.829 0.354-1.768 1.061-1.06 0.707 1.061-1.414 15.912-0.707 7.779-0.707 7.425 0 15.558 1.414 17.679-1.768 11.315 7.072 36.773 8.84 42.077 0.354 0.354 0-1.768 0.707-0.353 0.707 4.597 3.889 7.779 4.95 12.729 1.061 1.414 5.304 9.193 6.011 10.962 1.414 2.829 2.122 2.475 3.536 5.303 4.243 8.133 10.961 15.912 17.326 23.337 20.508 24.044 51.978 43.845 86.984 50.918 35.006 7.425 71.779 2.122 100.419-11.669 1.768-1.061 1.414-1.414 3.536-2.122 9.901-3.182 21.923-13.436 28.641-17.326 3.182-3.536 11.669-9.547 12.73-13.082 6.011-4.95 12.022-13.083 15.204-18.387 1.768-2.829 3.182-2.829 3.889-4.597-0.354 0 5.657-7.425 7.426-11.668-0.707 0-1.768 2.122-1.768 0 12.729-24.398 19.801-57.282 15.911-79.912 0.707 27.934-6.365 59.05-19.801 78.851-6.011 12.729-18.387 26.519-29.701 36.42-1.768 1.768-3.536 3.889-5.658 5.304-6.718 5.657-14.144 10.254-21.922 14.497-18.387 10.254-38.895 19.094-62.94 19.447 41.37-3.536 78.497-24.398 99.006-49.856-15.558 15.204-22.276 21.215-39.602 30.055-1.414 2.475-13.083 7.425-20.862 9.547 4.597-2.122 14.144-5.657 17.326-8.486-25.812 12.376-54.453 19.448-81.326 15.558 10.254 0 24.751 0.354 38.541-2.121 2.122-0.707 3.182-1.414 5.658-1.768 26.873-6.011 52.685-19.094 71.072-37.481-10.608 9.547-26.519 20.862-36.774 24.398 9.547-5.304 26.873-15.558 32.53-23.337-11.315 11.315-32.53 22.63-45.966 27.58-2.122 0.354 1.414-1.414-2.122 0-4.243 1.061-2.475 1.061-3.536 1.768-16.265 4.597-35.006 8.486-50.563 7.072-2.829-0.354-3.889-1.061-6.365-1.061-2.829-0.354-5.304-0.354-8.486-0.354-12.376-1.414-25.812-6.365-35.713-10.607-5.304-2.475-10.608-4.243-15.912-7.426-4.243-2.475-7.779-5.304-11.314-8.132-13.436-9.901-24.751-19.801-35.36-33.945-19.094-26.519-28.994-59.757-27.58-92.641 1.414-32.884 14.497-65.061 35.359-88.752-1.061 1.061 1.414-2.475 3.536-4.596 0 0.707-0.354 1.768 2.122-0.707 2.122-2.475-0.707-0.707 0.353-2.122 21.923-24.044 60.111-43.492 99.36-44.199 1.414-1.061 3.889-2.475 6.718-1.768 0 0.354-1.768 0.354-1.768 0.354 3.889-0.354 7.425-0.354 9.193 0.353 0.354-0.354-1.414-0.707 0-0.707 2.475 0.707 3.182 0 4.597 0.707-1.061 0-2.122 0-2.829 0.354 8.84 0 14.497 2.122 23.337 2.829-4.597-1.061-5.657-1.061-9.193-2.122 3.889 0.707 5.657 1.414 7.425 1.061-0.707 0-0.354-1.061 0.354-0.707 7.072 1.768 7.779 2.475 15.204 4.95 0.707-0.707-3.182-1.061-4.243-2.122 7.072 2.475 13.436 4.243 17.68 7.072-1.414-1.061-5.657-2.475-8.84-3.889-0.354 0.354 1.061 0.707 1.414 1.414-3.536-1.768-8.486-3.536-13.436-4.243 4.243 1.061 7.072 2.475 8.84 3.182-3.889-0.707-8.84-3.182-14.498-4.243 9.193 2.829 26.519 9.193 37.127 14.851-3.889-2.475-8.486-4.243-10.961-5.657 2.122 0.354 4.597 1.768 4.597 1.06 2.475 1.061 5.657 3.536 7.425 3.89-3.182-2.122-9.547-5.304-11.668-6.365 26.519 12.022 50.21 32.177 65.414 57.989 1.414 2.475 3.536 8.133 5.304 8.84-0.354-1.768-1.768-2.829-3.182-5.657 0.707 0 0.707-1.061 0-2.122-1.414-1.768 0 1.414-1.415-0.354-6.365-11.669-14.144-21.923-26.165-33.237 6.718 6.365 1.768 1.768 0.353-0.354 9.193 8.133 19.801 21.923 24.398 28.995-0.707-1.061-1.061-1.768-0.707-1.768 8.486 14.497 13.79 27.58 19.094 46.32 0.354 0.354 0-1.414 0.707-0.353 3.536 14.851 4.597 27.227 4.243 38.541 2.829-19.094-3.536-48.796-14.851-72.133-1.414-2.829-1.414-0.707-2.829-3.889 0-1.061-1.061-3.182-1.768-4.597-14.144-23.337-31.47-39.956-51.978-53.038 1.414 0.707 4.243 2.829 4.244 2.475-38.188-25.105-82.387-28.641-118.807-20.862-2.475 1.061-3.536 2.122-6.365 3.536 5.304-1.768 8.486-2.122 13.437-3.183 1.061-1.061-4.597 0.354-2.122-0.707 0.354 0.354 4.95-0.707 6.011-0.353 0 0.354-1.414 0.707-1.768 1.06 11.669-2.475 23.691-2.829 33.945-2.121-6.011 0.354-16.972-0.707-20.508 1.061 3.536-0.354 8.486-0.707 11.668-0.354-4.243 0-12.022 0.354-15.558 0.707-0.354-0.354 5.657-1.061 1.768-1.06-1.768 0.354-4.597 0.354-5.657 1.414-30.409 2.829-60.111 18.74-80.973 37.481-4.243 3.536-9.193 7.425-12.375 11.314-7.779 8.84-12.729 17.68-18.387 25.459 3.536-7.425 11.315-18.74 20.508-28.287 9.193-9.547 19.094-17.68 24.398-21.923 0 1.414 8.486-5.304 11.669-7.425-2.122 1.768 1.414-0.707 2.121-0.354 11.315-6.718 20.508-9.193 30.763-13.083-2.475 0.707-4.597 1.414-4.951 1.061 2.475-0.707 3.889-1.414 3.536-1.768-9.901 2.829-25.459 9.547-37.834 16.972 22.276-15.204 50.564-24.398 78.497-24.751 27.934-0.707 55.16 6.365 76.729 17.68 14.497 6.365 28.287 18.033 39.249 29.348 3.182 2.829 0.707-0.707 5.304 4.243-1.414-0.707-2.475-1.414-0.707 0.707 2.829 3.182-0.707-2.475 3.889 3.182-0.354 0-1.768-1.768-1.768-1.061 12.376 10.961 21.923 30.762 27.58 43.846-1.414-5.304-4.95-12.729-7.779-18.033 8.486 15.558 11.315 24.751 14.851 38.541 1.414 1.061-0.707-4.95 0.707-2.121 0.354 2.122 0.707 8.84 2.122 9.9-1.061-6.718-2.829-14.851-4.243-16.265 1.061 0.707-1.768-8.133-3.536-10.254-0.707-5.657-5.657-15.558-9.901-22.984-15.204-29.702-42.431-54.099-72.839-67.536 0-0.707-1.768-1.414-2.476-2.121-30.055-12.729-66.122-16.265-100.773-8.133-35.006 8.486-67.889 28.641-91.227 57.636 1.061-3.536 9.901-10.254 10.255-13.083-10.254 10.961-21.215 25.459-28.641 41.016-7.779 15.558-12.022 31.47-13.79 43.138" fill="#0023ff" fill-rule="nonzero" stroke="none" stroke-width="1" stroke-linecap="butt" stroke-linejoin="miter" stroke-miterlimit="10" stroke-dasharray="" stroke-dashoffset="0" font-family="none" font-weight="none" font-size="none" text-anchor="none" style="mix-blend-mode: normal" data-fill-palette-color="tertiary"></path></g><g transform="matrix(1,0,0,1,61.273941056452244,90)"><svg viewBox="0 0 197.4521178870955 180" height="180" width="197.4521178870955"><g><svg viewBox="0 0 224 204.20140554306568" height="180" width="197.4521178870955"><g transform="matrix(1,0,0,1,0,145.84083848316146)"><svg viewBox="0 0 224 58.360567059904206" height="58.360567059904206" width="224"><g id="textblocktransform"><svg viewBox="0 0 224 58.360567059904206" height="58.360567059904206" width="224" id="textblock"><g><svg viewBox="0 0 224 33.06854130052724" height="33.06854130052724" width="224"><g transform="matrix(1,0,0,1,0,0)"><svg width="224" viewBox="0.6000000238418579 -37.5 256.0299987792969 37.79999923706055" height="33.06854130052724" data-palette-color="#0023ff"><path d="M6.95-34L6.95-34Q9.5-35.65 12.43-36.58 15.35-37.5 18.15-37.5L18.15-37.5Q18.5-37.5 18.93-37.48 19.35-37.45 20.15-37.4L20.15-37.4 16.95-22.5 24.3-22.5 27.5-37.4 34.7-37.4 26.75 0 19.55 0 23.55-18.8 16.2-18.8 12.2 0 5 0 12.25-34Q8.85-32.6 7.05-29.78 5.25-26.95 5.25-23.05L5.25-23.05Q5.25-22.1 5.38-21.4 5.5-20.7 5.8-20.05L5.8-20.05Q5.9-19.85 5.93-19.78 5.95-19.7 5.95-19.65L5.95-19.65Q3.15-19.65 1.88-20.83 0.6-22 0.6-24.5L0.6-24.5Q0.6-27 2.27-29.5 3.95-32 6.95-34ZM32.55-7.7L32.55-7.7Q32.55-10.55 33.47-13.75 34.4-16.95 36-19.45L36-19.45Q37.85-22.4 40.45-23.93 43.05-25.45 46.25-25.45L46.25-25.45Q49.45-25.45 51.05-23.45 52.65-21.45 52.65-17.45L52.65-17.45Q52.75-17.4 52.87-17.38 53-17.35 53.2-17.35L53.2-17.35Q54.75-17.35 56.9-18.2 59.05-19.05 60.9-20.35L60.9-20.35 61.35-19Q59.95-17.5 57.62-16.4 55.3-15.3 52.5-14.85L52.5-14.85Q51.9-8.1 48.6-3.95 45.3 0.2 40.55 0.2L40.55 0.2Q36.65 0.2 34.6-1.8 32.55-3.8 32.55-7.7ZM46.65-22.4L46.65-22.4Q44.25-22.4 42.12-17.55 40-12.7 40-8.35L40-8.35Q40-6 40.52-5.15 41.05-4.3 42.55-4.3L42.55-4.3Q44.4-4.3 46.07-7.3 47.75-10.3 48.35-14.7L48.35-14.7Q47.65-14.85 47.32-15.38 47-15.9 47-16.8L47-16.8Q47-17.75 47.4-18.45 47.8-19.15 48.55-19.5L48.55-19.5Q48.45-21.1 48.02-21.75 47.6-22.4 46.65-22.4ZM81.59-5.35L81.59-5.35Q81.59-6.25 81.82-7.6 82.05-8.95 82.75-11.9L82.75-11.9Q83.45-14.75 83.65-16 83.84-17.25 83.84-18.1L83.84-18.1Q83.84-19.35 83.4-20 82.95-20.65 82.05-20.65L82.05-20.65Q80.84-20.65 79.82-19.43 78.8-18.2 78.15-16.05L78.15-16.05 74.75 0 67.55 0 71.2-17.25Q71.3-17.55 71.32-17.85 71.34-18.15 71.34-18.5L71.34-18.5Q71.34-19.5 70.95-20.1 70.55-20.7 69.84-20.7L69.84-20.7Q68.55-20.7 67.5-19.48 66.45-18.25 65.8-16.05L65.8-16.05 62.4 0 55.2 0 60.5-25 67.7-25 67.15-22.4Q68.4-23.85 69.9-24.55 71.4-25.25 73.25-25.25L73.25-25.25Q75.45-25.25 76.72-24.18 78-23.1 78.4-20.95L78.4-20.95Q79.8-23.1 81.5-24.15 83.2-25.2 85.34-25.2L85.34-25.2Q88-25.2 89.45-23.75 90.9-22.3 90.9-19.55L90.9-19.55Q90.9-18.4 90.62-16.82 90.34-15.25 89.55-12L89.55-12Q88.9-9.45 88.7-8.4 88.5-7.35 88.5-6.65L88.5-6.65Q88.5-5.6 89-5.08 89.5-4.55 90.5-4.55L90.5-4.55Q91.75-4.55 92.65-5.4 93.55-6.25 94.7-8.95L94.7-8.95 96.8-8.95Q95.2-4.3 92.92-2 90.65 0.3 87.5 0.3L87.5 0.3Q84.7 0.3 83.15-1.23 81.59-2.75 81.59-5.35ZM113.64-20.65L113.64-20.65Q113.64-16.5 110.24-13.43 106.84-10.35 102.14-10.1L102.14-10.1Q102.09-9.25 102.07-8.83 102.04-8.4 102.04-8.1L102.04-8.1Q102.04-5.8 102.82-4.85 103.59-3.9 105.64-3.9L105.64-3.9Q107.99-3.9 109.97-4.98 111.94-6.05 114.49-8.95L114.49-8.95 116.19-8.95Q113.29-4.25 109.89-1.98 106.49 0.3 102.44 0.3L102.44 0.3Q98.59 0.3 96.62-1.7 94.64-3.7 94.64-7.65L94.64-7.65Q94.64-10.5 95.54-13.7 96.44-16.9 97.94-19.4L97.94-19.4Q99.79-22.4 102.37-23.93 104.94-25.45 108.14-25.45L108.14-25.45Q110.89-25.45 112.27-24.28 113.64-23.1 113.64-20.65ZM108.54-22.8L108.54-22.8Q106.84-22.8 105.12-19.78 103.39-16.75 102.54-12.5L102.54-12.5Q105.44-12.7 107.62-15.18 109.79-17.65 109.79-20.75L109.79-20.75Q109.79-21.8 109.49-22.3 109.19-22.8 108.54-22.8ZM129.24-8.35L129.24-8.35Q129.24-7.75 129.19-7.3 129.14-6.85 129.04-6.45L129.04-6.45Q130.04-7.05 130.99-7.7 131.94-8.35 132.64-8.95L132.64-8.95 134.74-8.95Q133.19-7.15 131.31-5.63 129.44-4.1 127.09-2.7L127.09-2.7Q125.74-1.25 123.64-0.48 121.54 0.3 119.24 0.3L119.24 0.3Q115.89 0.3 113.92-1.53 111.94-3.35 111.94-6.1L111.94-6.1Q111.94-7.65 112.69-8.93 113.44-10.2 114.59-10.75L114.59-10.75Q116.29-13.8 117.77-17.28 119.24-20.75 120.74-25.55L120.74-25.55 128.14-26.55Q128.29-22.8 128.49-19.7 128.69-16.6 128.99-12.95L128.99-12.95Q129.14-10.85 129.19-10 129.24-9.15 129.24-8.35ZM121.04-20.15L121.04-20.15Q120.39-18.1 119.47-15.88 118.54-13.65 116.99-10.7L116.99-10.7Q117.54-10.45 117.84-10 118.14-9.55 118.14-8.95L118.14-8.95Q118.14-8 117.49-7.25 116.84-6.5 115.94-6.5L115.94-6.5Q115.44-6.5 115.09-6.68 114.74-6.85 114.59-7.15L114.59-7.15Q114.59-5.3 115.32-4.48 116.04-3.65 117.64-3.65L117.64-3.65Q119.69-3.65 120.84-4.85 121.99-6.05 121.99-8.3L121.99-8.3Q121.99-9 121.94-9.73 121.89-10.45 121.74-12.15L121.74-12.15Q121.49-14.5 121.34-16.3 121.19-18.1 121.04-20.15ZM132.39-5.7L132.39-5.7Q132.39-6.35 132.49-7.18 132.59-8 132.79-8.95L132.79-8.95 136.19-25 143.39-25 139.79-8Q139.74-7.7 139.69-7.38 139.64-7.05 139.64-6.75L139.64-6.75Q139.64-5.7 140.01-5.13 140.39-4.55 141.14-4.55L141.14-4.55Q142.44-4.55 143.46-5.68 144.49-6.8 145.14-8.95L145.14-8.95 148.54-25 155.74-25 152.14-8Q152.04-7.45 151.96-6.98 151.89-6.5 151.89-6.2L151.89-6.2Q151.89-5.4 152.31-4.98 152.74-4.55 153.59-4.55L153.59-4.55Q155.34-4.55 157.01-6.38 158.69-8.2 160.04-11.55L160.04-11.55Q161.04-13.95 161.64-16.6 162.24-19.25 162.24-21.25L162.24-21.25Q162.14-21.05 161.61-20.9 161.09-20.75 160.64-20.75L160.64-20.75Q159.84-20.75 159.34-21.53 158.84-22.3 158.84-23.3L158.84-23.3Q158.84-24.55 159.66-25.28 160.49-26 161.94-26L161.94-26Q163.49-26 164.29-24.85 165.09-23.7 165.09-21.65L165.09-21.65Q165.09-18.25 164.21-14.53 163.34-10.8 161.84-7.75L161.84-7.75Q159.84-3.8 157.04-1.75 154.24 0.3 150.84 0.3L150.84 0.3Q148.34 0.3 146.81-0.78 145.29-1.85 144.84-3.9L144.84-3.9Q143.39-1.8 141.66-0.75 139.94 0.3 137.74 0.3L137.74 0.3Q135.24 0.3 133.81-1.28 132.39-2.85 132.39-5.7ZM184.74-20.65L184.74-20.65Q184.74-16.5 181.34-13.43 177.94-10.35 173.24-10.1L173.24-10.1Q173.19-9.25 173.16-8.83 173.14-8.4 173.14-8.1L173.14-8.1Q173.14-5.8 173.91-4.85 174.69-3.9 176.74-3.9L176.74-3.9Q179.09-3.9 181.06-4.98 183.04-6.05 185.59-8.95L185.59-8.95 187.29-8.95Q184.39-4.25 180.99-1.98 177.59 0.3 173.54 0.3L173.54 0.3Q169.69 0.3 167.71-1.7 165.74-3.7 165.74-7.65L165.74-7.65Q165.74-10.5 166.64-13.7 167.54-16.9 169.04-19.4L169.04-19.4Q170.89-22.4 173.46-23.93 176.04-25.45 179.24-25.45L179.24-25.45Q181.99-25.45 183.36-24.28 184.74-23.1 184.74-20.65ZM179.64-22.8L179.64-22.8Q177.94-22.8 176.21-19.78 174.49-16.75 173.64-12.5L173.64-12.5Q176.54-12.7 178.71-15.18 180.89-17.65 180.89-20.75L180.89-20.75Q180.89-21.8 180.59-22.3 180.29-22.8 179.64-22.8ZM203.93-20.65L203.93-20.65Q203.93-16.5 200.53-13.43 197.13-10.35 192.43-10.1L192.43-10.1Q192.38-9.25 192.36-8.83 192.33-8.4 192.33-8.1L192.33-8.1Q192.33-5.8 193.11-4.85 193.88-3.9 195.93-3.9L195.93-3.9Q198.28-3.9 200.26-4.98 202.23-6.05 204.78-8.95L204.78-8.95 206.48-8.95Q203.58-4.25 200.18-1.98 196.78 0.3 192.73 0.3L192.73 0.3Q188.88 0.3 186.91-1.7 184.93-3.7 184.93-7.65L184.93-7.65Q184.93-10.5 185.83-13.7 186.73-16.9 188.23-19.4L188.23-19.4Q190.08-22.4 192.66-23.93 195.23-25.45 198.43-25.45L198.43-25.45Q201.18-25.45 202.56-24.28 203.93-23.1 203.93-20.65ZM198.83-22.8L198.83-22.8Q197.13-22.8 195.41-19.78 193.68-16.75 192.83-12.5L192.83-12.5Q195.73-12.7 197.91-15.18 200.08-17.65 200.08-20.75L200.08-20.75Q200.08-21.8 199.78-22.3 199.48-22.8 198.83-22.8ZM206.18-23L206.58-25 208.23-25 209.73-31.9 217.13-32.9 215.43-25 218.43-25 218.03-23 215.03-23 211.83-8Q211.73-7.55 211.68-7.18 211.63-6.8 211.63-6.4L211.63-6.4Q211.63-5.4 212.11-4.98 212.58-4.55 213.68-4.55L213.68-4.55Q215.08-4.55 216.33-5.78 217.58-7 218.18-8.95L218.18-8.95 220.28-8.95Q218.68-4.4 215.98-2.05 213.28 0.3 209.78 0.3L209.78 0.3Q207.28 0.3 205.86-1.28 204.43-2.85 204.43-5.7L204.43-5.7Q204.43-6.35 204.53-7.18 204.63-8 204.83-8.95L204.83-8.95 207.83-23 206.18-23ZM236.28-20.65L236.28-20.65Q236.28-16.5 232.88-13.43 229.48-10.35 224.78-10.1L224.78-10.1Q224.73-9.25 224.7-8.83 224.68-8.4 224.68-8.1L224.68-8.1Q224.68-5.8 225.45-4.85 226.23-3.9 228.28-3.9L228.28-3.9Q230.63-3.9 232.6-4.98 234.58-6.05 237.13-8.95L237.13-8.95 238.83-8.95Q235.93-4.25 232.53-1.98 229.13 0.3 225.08 0.3L225.08 0.3Q221.23 0.3 219.25-1.7 217.28-3.7 217.28-7.65L217.28-7.65Q217.28-10.5 218.18-13.7 219.08-16.9 220.58-19.4L220.58-19.4Q222.43-22.4 225-23.93 227.58-25.45 230.78-25.45L230.78-25.45Q233.53-25.45 234.9-24.28 236.28-23.1 236.28-20.65ZM231.18-22.8L231.18-22.8Q229.48-22.8 227.75-19.78 226.03-16.75 225.18-12.5L225.18-12.5Q228.08-12.7 230.25-15.18 232.43-17.65 232.43-20.75L232.43-20.75Q232.43-21.8 232.13-22.3 231.83-22.8 231.18-22.8ZM246.48-19L242.48 0 235.28 0 240.58-25 247.78-25 247.13-21.9Q249.33-23.75 250.6-24.38 251.88-25 253.18-25L253.18-25Q254.73-25 255.68-23.93 256.63-22.85 256.63-21.25L256.63-21.25Q256.63-19.7 255.63-18.65 254.63-17.6 253.03-17.6L253.03-17.6Q252.18-17.6 251.7-18 251.23-18.4 251.03-19.65L251.03-19.65Q250.88-20.45 250.68-20.68 250.48-20.9 250.13-20.9L250.13-20.9Q249.28-20.9 248.53-20.55 247.78-20.2 246.48-19L246.48-19Z" opacity="1" transform="matrix(1,0,0,1,0,0)" fill="#0023ff" class="wordmark-text-0" data-fill-palette-color="primary" id="text-0"></path></svg></g></svg></g><g transform="matrix(1,0,0,1,42.784000000000006,40.875230256590505)"><svg viewBox="0 0 138.432 17.4853368033137" height="17.4853368033137" width="138.432"><g transform="matrix(1,0,0,1,0,0)"><svg width="138.432" viewBox="-1.2470588684082031 -36.95000076293945 296.0770568847656 37.400001525878906" height="17.4853368033137" data-palette-color="#0023ff"><path d="M38.2-23.15Q37.4-20.25 35.2-18.63 33-17 29.65-16.6L29.65-16.6Q32.05-16.4 33.25-15.2 34.45-14 34.45-12.05L34.45-12.05Q34.45-11.3 34.2-10.2L34.2-10.2 33.65-7.75Q33.55-7.25 33.55-7.05L33.55-7.05Q33.55-6.4 33.85-6.08 34.15-5.75 34.7-5.75L34.7-5.75Q35.75-5.75 36.23-5.45 36.7-5.15 36.55-4.35L36.55-4.35Q36.35-3.2 35.35-2.1 34.35-1 32.52-0.28 30.7 0.45 28.1 0.45L28.1 0.45Q24.8 0.45 22.85-1.03 20.9-2.5 20.9-5.25L20.9-5.25Q20.9-6.3 21.2-7.5L21.2-7.5 22-10.7Q22.2-11.35 22.2-12.05L22.2-12.05Q22.2-13.2 21.43-13.7 20.65-14.2 18.95-14.2L18.95-14.2 17.05-14.2 14.75-5.9Q14.65-5.6 14.65-5.15L14.65-5.15Q14.65-4.45 15-3.95 15.35-3.45 15.95-2.9L15.95-2.9Q16.4-2.55 16.65-2.23 16.9-1.9 16.9-1.55L16.9-1.55Q16.9-0.7 16.1-0.35 15.3 0 13.75 0L13.75 0 1.2 0Q-0.1 0-0.75-0.48-1.4-0.95-1.2-1.8L-1.2-1.8Q-1.1-2.25-0.83-2.53-0.55-2.8 0-3.15L0-3.15Q0.85-3.65 1.35-4.2 1.85-4.75 2.15-5.9L2.15-5.9 8.25-27.45Q8.45-28.1 8.45-28.7L8.45-28.7Q8.45-29.25 8.28-29.63 8.1-30 7.8-30.5L7.8-30.5Q7.35-31.15 7.35-31.55L7.35-31.55Q7.35-31.7 7.45-32.1L7.45-32.1Q7.65-32.75 8.33-33.02 9-33.3 10.4-33.3L10.4-33.3 27.15-33.3Q30.6-33.3 33.18-32.25 35.75-31.2 37.13-29.38 38.5-27.55 38.5-25.25L38.5-25.25Q38.5-24.2 38.2-23.15L38.2-23.15ZM25.4-23.65Q25.65-24.8 25.65-25.4L25.65-25.4Q25.65-28.05 22.75-28.05L22.75-28.05 20.65-28.05 18.45-19.2 20.55-19.2Q22.5-19.2 23.63-20.15 24.75-21.1 25.4-23.65L25.4-23.65ZM54.9-26.7Q61.25-26.7 64.1-24.68 66.95-22.65 66.95-19.5L66.95-19.5Q66.95-18.55 66.75-17.75L66.75-17.75Q66-14.45 62.57-13.03 59.15-11.6 54.5-11.6L54.5-11.6Q52.15-11.6 50.1-11.9L50.1-11.9Q50.05-9.3 51.5-8.25 52.95-7.2 55.55-7.2L55.55-7.2Q56.75-7.2 57.85-7.48 58.95-7.75 60.65-8.3L60.65-8.3Q62.05-8.8 62.55-8.8L62.55-8.8Q63.1-8.8 63.1-8.15L63.1-8.15Q63.15-6.4 61.8-4.48 60.45-2.55 57.8-1.2 55.15 0.15 51.4 0.15L51.4 0.15Q45.85 0.15 42.3-2.65 38.75-5.45 38.75-10.8L38.75-10.8Q38.75-12.3 39.15-14.3L39.15-14.3Q40.4-20.45 44.62-23.58 48.85-26.7 54.9-26.7L54.9-26.7ZM50.45-14.9Q50.65-14.85 51-14.85L51-14.85Q53.1-14.85 54.2-16.8 55.3-18.75 55.25-21.15L55.25-21.15Q55.2-22.55 54.45-22.55L54.45-22.55Q53.9-22.55 53.15-21.68 52.4-20.8 51.67-19.05 50.95-17.3 50.45-14.9L50.45-14.9ZM83.8-26.45Q89.55-26.45 93-24.33 96.45-22.2 96.45-17.85L96.45-17.85Q96.45-16.2 95.85-14.1L95.85-14.1 93.8-7.2Q93.75-7 93.75-6.7L93.75-6.7Q93.75-5.9 94.4-5.9L94.4-5.9Q95-5.9 95.42-6.43 95.85-6.95 96-6.95L96-6.95Q96.25-6.95 96.42-6.6 96.6-6.25 96.6-5.8L96.6-5.8Q96.65-4.45 95.57-3.05 94.5-1.65 92.7-0.75 90.9 0.15 88.75 0.15L88.75 0.15Q86.15 0.15 84.3-0.8 82.45-1.75 81.75-3.6L81.75-3.6Q80.25-1.8 78.2-0.83 76.15 0.15 73.8 0.15L73.8 0.15Q71.15 0.15 69.35-0.88 67.55-1.9 66.67-3.53 65.8-5.15 65.8-6.95L65.8-6.95Q65.8-7.75 65.95-8.5L65.95-8.5Q66.75-11.95 69.42-13.7 72.1-15.45 75.8-15.45L75.8-15.45Q79.95-15.45 83.95-14.15L83.95-14.15 85.2-17.45Q85.85-19.55 85.85-20.7L85.85-20.7Q85.8-21.9 85.05-22.5 84.3-23.1 82.75-23.1L82.75-23.1Q83.05-22.3 83.05-21.45L83.05-21.45Q83.05-19.6 81.65-18.25 80.25-16.9 77.65-16.9L77.65-16.9Q75.2-16.9 73.82-17.98 72.45-19.05 72.45-20.65L72.45-20.65Q72.45-23.15 75.25-24.8 78.05-26.45 83.8-26.45L83.8-26.45ZM81-11.3Q79.6-11.3 78.72-10.23 77.85-9.15 77.85-7.9L77.85-7.9Q77.85-7.1 78.22-6.6 78.6-6.1 79.3-6.1L79.3-6.1Q79.95-6.1 80.72-6.63 81.5-7.15 81.85-8.2L81.85-8.2 82.9-11.15Q82.05-11.3 81-11.3L81-11.3ZM114.59-36.95Q117.49-36.95 118.87-35.85 120.24-34.75 120.24-32.85L120.24-32.85Q120.24-31.75 119.89-30.7L119.89-30.7 112.04-5.2Q111.89-4.6 111.89-4.15L111.89-4.15Q111.89-3.5 112.14-3.13 112.39-2.75 112.84-2.4L112.84-2.4Q113.19-2.05 113.34-1.83 113.49-1.6 113.39-1.25L113.39-1.25Q113.14-0.6 112.39-0.3 111.64 0 110.09 0L110.09 0 98.69 0Q97.39 0 96.79-0.43 96.19-0.85 96.39-1.55L96.39-1.55Q96.59-2.15 97.44-2.6L97.44-2.6Q98.19-3 98.69-3.55 99.19-4.1 99.54-5.3L99.54-5.3 107.14-30.25Q107.29-30.7 107.29-31L107.29-31Q107.29-31.55 107.02-31.9 106.74-32.25 106.29-32.6L106.29-32.6Q105.79-33 105.57-33.3 105.34-33.6 105.49-34.1L105.49-34.1Q105.79-35.25 108.64-36.1 111.49-36.95 114.59-36.95L114.59-36.95ZM159.59-33.3Q161.44-33.3 162.46-32.5 163.49-31.7 163.49-30.3L163.49-30.3Q163.49-29.6 163.29-28.95L163.29-28.95 161.99-24.3Q161.64-22.95 160.96-22.43 160.29-21.9 159.04-21.9L159.04-21.9Q157.84-21.9 157.16-22.43 156.49-22.95 156.14-24.15L156.14-24.15 155.34-27Q155.09-27.9 154.74-28.2 154.39-28.5 153.39-28.5L153.39-28.5 148.14-28.5 145.64-19.6 147.84-19.6Q148.19-19.6 148.79-20.1L148.79-20.1 150.49-21.6Q151.24-22.25 151.79-22.55 152.34-22.85 153.14-22.85L153.14-22.85Q154.04-22.85 154.61-22.38 155.19-21.9 155.19-21.15L155.19-21.15Q155.19-20.95 155.09-20.55L155.09-20.55 153.04-13.6Q152.74-12.5 152.01-11.98 151.29-11.45 150.44-11.45L150.44-11.45Q149.04-11.45 148.34-12.9L148.34-12.9 147.49-14.65Q147.14-15.4 146.39-15.4L146.39-15.4 144.44-15.4 141.49-4.8 145.89-4.8Q146.84-4.8 147.56-5.18 148.29-5.55 149.14-6.5L149.14-6.5 152.14-9.8Q152.94-10.65 153.66-11.03 154.39-11.4 155.44-11.4L155.44-11.4Q156.54-11.4 157.24-10.9 157.94-10.4 157.94-9.4L157.94-9.4Q157.94-9 157.79-8.45L157.79-8.45 156.34-3.4Q155.79-1.5 154.74-0.75 153.69 0 151.69 0L151.69 0 127.84 0Q126.79 0 126.21-0.35 125.64-0.7 125.64-1.3L125.64-1.3Q125.64-1.6 125.79-1.95L125.79-1.95Q125.99-2.5 126.44-2.8 126.89-3.1 126.99-3.15L126.99-3.15Q127.79-3.65 128.29-4.17 128.79-4.7 129.14-5.9L129.14-5.9 135.29-27.45Q135.49-28.1 135.49-28.65L135.49-28.65Q135.49-29.25 135.31-29.65 135.14-30.05 134.79-30.5L134.79-30.5Q134.34-31.15 134.34-31.55L134.34-31.55Q134.34-31.7 134.44-32.1L134.44-32.1Q134.64-32.75 135.34-33.02 136.04-33.3 137.39-33.3L137.39-33.3 159.59-33.3ZM176.94-26.9Q181.09-26.9 184.11-26.15 187.14-25.4 188.76-24.05 190.39-22.7 190.39-21L190.39-21Q190.39-19.25 189.01-18.15 187.64-17.05 185.19-17.05L185.19-17.05Q182.69-17.05 180.96-18.3 179.24-19.55 179.24-21.45L179.24-21.45Q179.24-22.1 179.44-22.7L179.44-22.7Q178.54-22.95 177.84-22.95L177.84-22.95Q176.59-22.95 175.76-22.35 174.94-21.75 174.99-20.65L174.99-20.65Q174.99-19.35 176.29-18.45 177.59-17.55 180.49-16.2L180.49-16.2Q182.99-15.1 184.61-14.18 186.24-13.25 187.36-11.85 188.49-10.45 188.49-8.55L188.49-8.55Q188.49-8.15 188.29-7.05L188.29-7.05Q187.49-3.7 183.84-1.75 180.19 0.2 174.24 0.2L174.24 0.2Q167.54 0.2 163.61-1.6 159.69-3.4 159.69-6.55L159.69-6.55Q159.69-8.7 160.99-9.8 162.29-10.9 164.44-10.9L164.44-10.9Q166.94-10.9 168.71-9.35 170.49-7.8 170.49-5.4L170.49-5.4Q170.49-4.75 170.34-4.05L170.34-4.05Q171.54-3.75 172.64-3.75L172.64-3.75Q173.94-3.75 174.79-4.45 175.64-5.15 175.64-6.4L175.64-6.4Q175.59-7.55 174.49-8.38 173.39-9.2 170.99-10.35L170.99-10.35Q168.74-11.4 167.29-12.33 165.84-13.25 164.81-14.65 163.79-16.05 163.79-17.95L163.79-17.95Q163.79-22.05 167.21-24.48 170.64-26.9 176.94-26.9L176.94-26.9ZM212.48-25.8Q213.43-25.8 213.96-25.4 214.48-25 214.48-24.3L214.48-24.3Q214.48-24.1 214.38-23.6L214.38-23.6Q213.73-21.4 211.38-21.4L211.38-21.4 208.48-21.4 204.73-9.05Q204.48-8.3 204.48-7.5L204.48-7.5Q204.48-6.6 204.98-6.25 205.48-5.9 206.38-5.9L206.38-5.9Q207.18-5.9 208.38-6.1L208.38-6.1Q208.98-6.25 209.43-6.25L209.43-6.25Q209.78-6.25 209.96-6.03 210.13-5.8 210.13-5.45L210.13-5.45Q210.18-4.45 208.66-3.03 207.13-1.6 204.53-0.58 201.93 0.45 198.78 0.45L198.78 0.45Q195.38 0.45 193.33-1.1 191.28-2.65 191.28-5.35L191.28-5.35Q191.28-6.6 191.68-7.75L191.68-7.75 194.88-17.65Q195.13-18.5 195.13-19L195.13-19Q195.13-20 194.66-20.7 194.18-21.4 193.33-22.15L193.33-22.15Q192.58-22.85 192.28-23.33 191.98-23.8 192.13-24.45L192.13-24.45Q192.33-25.1 192.98-25.45 193.63-25.8 195.03-25.8L195.03-25.8 197.83-25.8 200.98-28.95Q202.63-30.6 204.01-31.25 205.38-31.9 207.58-31.9L207.58-31.9Q210.73-31.9 210.73-29.5L210.73-29.5Q210.73-28.75 210.53-28.1L210.53-28.1 209.83-25.8 212.48-25.8ZM229.48-26.45Q235.23-26.45 238.68-24.33 242.13-22.2 242.13-17.85L242.13-17.85Q242.13-16.2 241.53-14.1L241.53-14.1 239.48-7.2Q239.43-7 239.43-6.7L239.43-6.7Q239.43-5.9 240.08-5.9L240.08-5.9Q240.68-5.9 241.11-6.43 241.53-6.95 241.68-6.95L241.68-6.95Q241.93-6.95 242.11-6.6 242.28-6.25 242.28-5.8L242.28-5.8Q242.33-4.45 241.26-3.05 240.18-1.65 238.38-0.75 236.58 0.15 234.43 0.15L234.43 0.15Q231.83 0.15 229.98-0.8 228.13-1.75 227.43-3.6L227.43-3.6Q225.93-1.8 223.88-0.83 221.83 0.15 219.48 0.15L219.48 0.15Q216.83 0.15 215.03-0.88 213.23-1.9 212.36-3.53 211.48-5.15 211.48-6.95L211.48-6.95Q211.48-7.75 211.63-8.5L211.63-8.5Q212.43-11.95 215.11-13.7 217.78-15.45 221.48-15.45L221.48-15.45Q225.63-15.45 229.63-14.15L229.63-14.15 230.88-17.45Q231.53-19.55 231.53-20.7L231.53-20.7Q231.48-21.9 230.73-22.5 229.98-23.1 228.43-23.1L228.43-23.1Q228.73-22.3 228.73-21.45L228.73-21.45Q228.73-19.6 227.33-18.25 225.93-16.9 223.33-16.9L223.33-16.9Q220.88-16.9 219.51-17.98 218.13-19.05 218.13-20.65L218.13-20.65Q218.13-23.15 220.93-24.8 223.73-26.45 229.48-26.45L229.48-26.45ZM226.68-11.3Q225.28-11.3 224.41-10.23 223.53-9.15 223.53-7.9L223.53-7.9Q223.53-7.1 223.91-6.6 224.28-6.1 224.98-6.1L224.98-6.1Q225.63-6.1 226.41-6.63 227.18-7.15 227.53-8.2L227.53-8.2 228.58-11.15Q227.73-11.3 226.68-11.3L226.68-11.3ZM266.68-25.8Q267.63-25.8 268.15-25.4 268.68-25 268.68-24.3L268.68-24.3Q268.68-24.1 268.58-23.6L268.58-23.6Q267.93-21.4 265.58-21.4L265.58-21.4 262.68-21.4 258.93-9.05Q258.68-8.3 258.68-7.5L258.68-7.5Q258.68-6.6 259.18-6.25 259.68-5.9 260.58-5.9L260.58-5.9Q261.38-5.9 262.58-6.1L262.58-6.1Q263.18-6.25 263.63-6.25L263.63-6.25Q263.98-6.25 264.15-6.03 264.33-5.8 264.33-5.45L264.33-5.45Q264.38-4.45 262.85-3.03 261.33-1.6 258.73-0.58 256.13 0.45 252.98 0.45L252.98 0.45Q249.58 0.45 247.53-1.1 245.48-2.65 245.48-5.35L245.48-5.35Q245.48-6.6 245.88-7.75L245.88-7.75 249.08-17.65Q249.33-18.5 249.33-19L249.33-19Q249.33-20 248.85-20.7 248.38-21.4 247.53-22.15L247.53-22.15Q246.78-22.85 246.48-23.33 246.18-23.8 246.33-24.45L246.33-24.45Q246.53-25.1 247.18-25.45 247.83-25.8 249.23-25.8L249.23-25.8 252.03-25.8 255.18-28.95Q256.83-30.6 258.2-31.25 259.58-31.9 261.78-31.9L261.78-31.9Q264.93-31.9 264.93-29.5L264.93-29.5Q264.93-28.75 264.73-28.1L264.73-28.1 264.03-25.8 266.68-25.8ZM282.78-26.7Q289.13-26.7 291.98-24.68 294.83-22.65 294.83-19.5L294.83-19.5Q294.83-18.55 294.63-17.75L294.63-17.75Q293.88-14.45 290.45-13.03 287.03-11.6 282.38-11.6L282.38-11.6Q280.03-11.6 277.98-11.9L277.98-11.9Q277.93-9.3 279.38-8.25 280.83-7.2 283.43-7.2L283.43-7.2Q284.63-7.2 285.73-7.48 286.83-7.75 288.53-8.3L288.53-8.3Q289.93-8.8 290.43-8.8L290.43-8.8Q290.98-8.8 290.98-8.15L290.98-8.15Q291.03-6.4 289.68-4.48 288.33-2.55 285.68-1.2 283.03 0.15 279.28 0.15L279.28 0.15Q273.73 0.15 270.18-2.65 266.63-5.45 266.63-10.8L266.63-10.8Q266.63-12.3 267.03-14.3L267.03-14.3Q268.28-20.45 272.5-23.58 276.73-26.7 282.78-26.7L282.78-26.7ZM278.33-14.9Q278.53-14.85 278.88-14.85L278.88-14.85Q280.98-14.85 282.08-16.8 283.18-18.75 283.13-21.15L283.13-21.15Q283.08-22.55 282.33-22.55L282.33-22.55Q281.78-22.55 281.03-21.68 280.28-20.8 279.55-19.05 278.83-17.3 278.33-14.9L278.33-14.9Z" opacity="1" transform="matrix(1,0,0,1,0,0)" fill="#0023ff" class="slogan-text-1" data-fill-palette-color="secondary" id="text-1"></path></svg></g></svg></g></svg></g></svg></g><g transform="matrix(1,0,0,1,46.88626971448254,0)"><svg viewBox="0 0 130.22746057103492 130.22746057103492" height="130.22746057103492" width="130.22746057103492"><g><svg></svg></g><g id="icon-0"><svg viewBox="0 0 130.22746057103492 130.22746057103492" height="130.22746057103492" width="130.22746057103492"><g><path d="M0 65.114c0-35.961 29.152-65.114 65.114-65.114 35.961 0 65.114 29.152 65.113 65.114 0 35.961-29.152 65.114-65.113 65.113-35.961 0-65.114-29.152-65.114-65.113zM65.114 127.245c34.314 0 62.132-27.817 62.131-62.131 0-34.314-27.817-62.132-62.131-62.132-34.314 0-62.132 27.817-62.132 62.132 0 34.314 27.817 62.132 62.132 62.131z" data-fill-palette-color="accent" fill="#0023ff" stroke="transparent"></path><ellipse rx="64.46259298266229" ry="64.46259298266229" cx="65.11373028551746" cy="65.11373028551746" fill="#0023ff" stroke="transparent" stroke-width="0" fill-opacity="1" data-fill-palette-color="accent"></ellipse></g><g transform="matrix(1,0,0,1,44.6786061140339,26.07438250012556)"><svg viewBox="0 0 40.87024834296714 78.07869557078381" height="78.07869557078381" width="40.87024834296714"><g><svg xmlns="http://www.w3.org/2000/svg" xmlns:xlink="http://www.w3.org/1999/xlink" version="1.1" x="0" y="0" viewBox="19.682355880737305 3.5 35.572967529296875 67.95874786376953" enable-background="new 0 0 75 75" xml:space="preserve" height="78.07869557078381" width="40.87024834296714" class="icon-s-0" data-fill-palette-color="quaternary" id="s-0"><path d="M21.2 59.5c-1.1-2.6-4.2-12.2 3.8-24.7C36 18 31.7 3.5 31.7 3.5S46 8.8 41.7 37.5c-1 6.5-0.9 9 2 9.4 5 0.7 3.1-19.7 3.1-19.7s3.9 2 6.8 12.1c1.5 5.3 1.8 9.5 1.6 12.5-1 18.1-16.5 19.6-16.5 19.6S26.9 73 21.2 59.5z" fill="#ffffff" data-fill-palette-color="quaternary"></path></svg></g></svg></g></svg></g></svg></g><g></g></svg></g></svg></g></svg></g><defs></defs></svg><rect width="320" height="360" fill="none" stroke="none" visibility="hidden"></rect></g></svg></g></svg>